<svg width="24" height="24" viewBox="0 0 24 24" fill="none" xmlns="http://www.w3.org/2000/svg">
<path d="M4.50697 14.257C4.00631 14.8935 3.87924 15.7472 4.17283 16.5019C4.97316 17.8835 8.29955 17.5023 11.9991 15.7466" stroke="#F7F7F7" stroke-width="1.5" stroke-linecap="round" stroke-linejoin="round"/>
<path d="M19.4933 9.74309C19.9934 9.10633 20.1204 8.25296 19.8275 7.49816C19.0271 6.11658 15.7008 6.49774 12.0012 8.25347" stroke="#F7F7F7" stroke-width="1.5" stroke-linecap="round" stroke-linejoin="round"/>
<path d="M15.2564 13.8728C14.9383 17.9465 13.6007 21.0038 12.0001 21.0038C11.3428 21.0038 10.7315 20.4816 10.2153 19.5922" stroke="#F7F7F7" stroke-width="1.5" stroke-linecap="round" stroke-linejoin="round"/>
<path d="M6.29176 6.66373C5.48793 6.5502 4.68349 6.86696 4.17288 7.49808C3.37255 8.87966 5.36238 11.5618 8.74378 13.8727" stroke="#F7F7F7" stroke-width="1.5" stroke-linecap="round" stroke-linejoin="round"/>
<path d="M17.7086 17.3362C18.5124 17.4497 19.3169 17.133 19.8275 16.5019C20.6278 15.1203 18.638 12.4382 15.2566 10.1272" stroke="#F7F7F7" stroke-width="1.5" stroke-linecap="round" stroke-linejoin="round"/>
<path d="M8.74365 10.1272C9.06178 6.05349 10.3993 2.99622 12 2.99622C12.6573 2.99622 13.2685 3.51843 13.7848 4.4078" stroke="#F7F7F7" stroke-width="1.5" stroke-linecap="round" stroke-linejoin="round"/>
</svg>
