<svg width="32" height="32" viewBox="0 0 32 32" fill="none" xmlns="http://www.w3.org/2000/svg">
<rect width="32" height="32" rx="16" fill="#653DF5"/>
<path d="M8.50685 18.257C8.00618 18.8935 7.87912 19.7472 8.17271 20.5019C8.97304 21.8835 12.2994 21.5023 15.999 19.7466" stroke="#F7F7F7" stroke-width="1.5" stroke-linecap="round" stroke-linejoin="round"/>
<path d="M23.4931 13.7431C23.9932 13.1063 24.1202 12.253 23.8272 11.4982C23.0269 10.1166 19.7005 10.4977 16.001 12.2535" stroke="#F7F7F7" stroke-width="1.5" stroke-linecap="round" stroke-linejoin="round"/>
<path d="M19.2564 17.8728C18.9382 21.9465 17.6007 25.0038 16 25.0038C15.3427 25.0038 14.7315 24.4816 14.2153 23.5922" stroke="#F7F7F7" stroke-width="1.5" stroke-linecap="round" stroke-linejoin="round"/>
<path d="M10.2916 10.6637C9.4878 10.5502 8.68337 10.867 8.17276 11.4981C7.37242 12.8797 9.36225 15.5618 12.7437 17.8727" stroke="#F7F7F7" stroke-width="1.5" stroke-linecap="round" stroke-linejoin="round"/>
<path d="M21.7084 21.3362C22.5122 21.4497 23.3166 21.133 23.8273 20.5019C24.6276 19.1203 22.6378 16.4382 19.2563 14.1272" stroke="#F7F7F7" stroke-width="1.5" stroke-linecap="round" stroke-linejoin="round"/>
<path d="M12.7437 14.1272C13.0618 10.0535 14.3993 6.99622 16 6.99622C16.6573 6.99622 17.2685 7.51843 17.7848 8.4078" stroke="#F7F7F7" stroke-width="1.5" stroke-linecap="round" stroke-linejoin="round"/>
</svg>
