<svg width="40" height="40" viewBox="0 0 40 40" fill="none" xmlns="http://www.w3.org/2000/svg">
<path d="M30.0834 11.94C30.6386 9.11464 30.3281 6.97038 29.016 6.11827C28.5518 5.83042 28.009 5.69544 27.4641 5.73235C24.2772 5.85333 19.1351 10.2413 14.9339 16.7107C9.9546 24.3781 8.18509 32.0624 10.9843 33.8802C12.3131 34.7431 14.4304 34.1314 16.8224 32.4268" stroke="#030E15" stroke-width="2" stroke-linecap="round" stroke-linejoin="round"/>
<path d="M20.3201 13.9681C29.4499 14.4466 36.7036 17.5323 36.5289 20.8654C36.4534 22.3067 35.0002 23.5616 32.6369 24.4783" stroke="#030E15" stroke-width="2" stroke-linecap="round" stroke-linejoin="round"/>
<path d="M16.9172 13.9203C17.2104 13.9134 17.501 13.9034 17.7993 13.9024C18.6225 13.8996 19.4642 13.9232 20.3201 13.9681" stroke="#030E15" stroke-width="2" stroke-linecap="round" stroke-linejoin="round"/>
<path d="M11.439 14.4407C6.75981 15.2684 3.58345 16.9868 3.47111 19.1329C3.39566 20.5712 4.70619 21.9661 6.95256 23.1236" stroke="#030E15" stroke-width="2" stroke-linecap="round" stroke-linejoin="round"/>
<path d="M30.0834 11.94C30.6386 9.11464 30.3281 6.97038 29.016 6.11827C28.5518 5.83042 28.009 5.69544 27.4641 5.73235C24.2772 5.85333 19.1351 10.2413 14.9339 16.7107C9.9546 24.3781 8.18509 32.0624 10.9843 33.8802C12.3131 34.7431 14.4304 34.1314 16.8224 32.4268" stroke="#030E15" stroke-width="2" stroke-linecap="round" stroke-linejoin="round"/>
<path d="M17.742 6.97217C16.5806 5.80607 15.0327 5.10513 13.3901 5.0015C13.0756 5.0222 12.7684 5.10597 12.4869 5.24784C9.51297 6.7631 10.463 14.5999 14.6136 22.7458C18.7641 30.8917 24.5394 36.2658 27.5133 34.7505C30.3732 33.2933 29.6013 25.9908 25.8464 18.1886" stroke="#030E15" stroke-width="2" stroke-linecap="round" stroke-linejoin="round"/>
<path d="M17.742 6.97217C16.5806 5.80607 15.0327 5.10513 13.3901 5.0015C13.0756 5.0222 12.7684 5.10597 12.4869 5.24784C9.51297 6.7631 10.463 14.5999 14.6136 22.7458C18.7641 30.8917 24.5394 36.2658 27.5133 34.7505C30.3732 33.2933 29.6013 25.9908 25.8464 18.1886" stroke="#030E15" stroke-width="2" stroke-linecap="round" stroke-linejoin="round"/>
<path d="M20.5242 20.2338C20.5239 20.4639 20.3373 20.6502 20.1072 20.6501C19.8771 20.65 19.6906 20.4635 19.6905 20.2334C19.6904 20.0034 19.8768 19.8167 20.1068 19.8164C20.2176 19.8163 20.3238 19.8602 20.4021 19.9385C20.4804 20.0168 20.5243 20.1231 20.5242 20.2338" stroke="#030E15" stroke-width="2" stroke-linecap="round" stroke-linejoin="round"/>
</svg>
