<svg width="24" height="24" viewBox="0 0 24 24" fill="none" xmlns="http://www.w3.org/2000/svg">
<path fill-rule="evenodd" clip-rule="evenodd" d="M18.0026 17.002H5.99759C4.34004 17.002 2.99634 15.6583 2.99634 14.0008V5.99747C2.99634 4.33992 4.34004 2.99622 5.99759 2.99622H18.0026C19.6601 2.99622 21.0038 4.33992 21.0038 5.99747V14.0008C21.0038 15.6583 19.6601 17.002 18.0026 17.002Z" stroke="#F7F7F7" stroke-width="1.5" stroke-linecap="round" stroke-linejoin="round"/>
<path d="M14.0008 17.0021L14.501 21.0037" stroke="#F7F7F7" stroke-width="1.5" stroke-linecap="round" stroke-linejoin="round"/>
<path d="M9.99934 17.0021L9.49913 21.0037" stroke="#F7F7F7" stroke-width="1.5" stroke-linecap="round" stroke-linejoin="round"/>
<path d="M7.198 21.0037H16.802" stroke="#F7F7F7" stroke-width="1.5" stroke-linecap="round" stroke-linejoin="round"/>
<path d="M16.7982 9.9801L15.2939 11.4843" stroke="#F7F7F7" stroke-width="1.5" stroke-linecap="round" stroke-linejoin="round"/>
<path d="M15.3113 8.49341L16.7983 9.98004" stroke="#F7F7F7" stroke-width="1.5" stroke-linecap="round" stroke-linejoin="round"/>
<path d="M8.70613 11.4951L7.2019 9.99121" stroke="#F7F7F7" stroke-width="1.5" stroke-linecap="round" stroke-linejoin="round"/>
<path d="M8.68899 8.50415L7.2019 9.99123" stroke="#F7F7F7" stroke-width="1.5" stroke-linecap="round" stroke-linejoin="round"/>
<path d="M12.7579 7.49817L11.2537 12.5003" stroke="#F7F7F7" stroke-width="1.5" stroke-linecap="round" stroke-linejoin="round"/>
</svg>
