<svg width="40" height="40" viewBox="0 0 40 40" fill="none" xmlns="http://www.w3.org/2000/svg">
<path fill-rule="evenodd" clip-rule="evenodd" d="M30.0043 28.3368H9.99598C7.23341 28.3368 4.9939 26.0973 4.9939 23.3347V9.99583C4.9939 7.23326 7.23341 4.99375 9.99598 4.99375H30.0043C32.7669 4.99375 35.0064 7.23326 35.0064 9.99583V23.3347C35.0064 26.0973 32.7669 28.3368 30.0043 28.3368Z" stroke="#030E15" stroke-width="2" stroke-linecap="round" stroke-linejoin="round"/>
<path d="M23.3348 28.3368L24.1685 35.0063" stroke="#030E15" stroke-width="2" stroke-linecap="round" stroke-linejoin="round"/>
<path d="M16.6653 28.3368L15.8316 35.0063" stroke="#030E15" stroke-width="2" stroke-linecap="round" stroke-linejoin="round"/>
<path d="M11.9966 35.0063H28.0032" stroke="#030E15" stroke-width="2" stroke-linecap="round" stroke-linejoin="round"/>
<path d="M27.9968 16.6335L25.4897 19.1405" stroke="#030E15" stroke-width="2" stroke-linecap="round" stroke-linejoin="round"/>
<path d="M25.5186 14.1557L27.9969 16.6335" stroke="#030E15" stroke-width="2" stroke-linecap="round" stroke-linejoin="round"/>
<path d="M14.5102 19.1585L12.0032 16.652" stroke="#030E15" stroke-width="2" stroke-linecap="round" stroke-linejoin="round"/>
<path d="M14.4817 14.1736L12.0032 16.652" stroke="#030E15" stroke-width="2" stroke-linecap="round" stroke-linejoin="round"/>
<path d="M21.2629 12.4969L18.7559 20.8337" stroke="#030E15" stroke-width="2" stroke-linecap="round" stroke-linejoin="round"/>
</svg>
