<svg width="24" height="24" viewBox="0 0 24 24" fill="none" xmlns="http://www.w3.org/2000/svg">
<path d="M6.99793 20.0034C5.61665 20.0034 4.49689 18.8836 4.49689 17.5023V14.5011C4.49689 13.8378 4.23339 13.2016 3.76435 12.7326C3.29532 12.2635 2.65917 12 1.99585 12C2.65917 12 3.29532 11.7365 3.76435 11.2675C4.23339 10.7985 4.49689 10.1623 4.49689 9.499V6.49775C4.49689 5.11646 5.61665 3.9967 6.99793 3.9967" stroke="#F7F7F7" stroke-width="1.5" stroke-linecap="round" stroke-linejoin="round"/>
<path d="M17.0022 3.9967C18.3835 3.9967 19.5032 5.11646 19.5032 6.49775V9.499C19.5032 10.8803 20.623 12 22.0043 12C20.623 12 19.5032 13.1198 19.5032 14.5011V17.5023C19.5032 18.8836 18.3835 20.0034 17.0022 20.0034" stroke="#F7F7F7" stroke-width="1.5" stroke-linecap="round" stroke-linejoin="round"/>
<path d="M8.67376 12.082C8.67376 12.0544 8.65137 12.032 8.62374 12.032C8.59612 12.032 8.57372 12.0544 8.57372 12.082C8.57372 12.1096 8.59612 12.132 8.62374 12.132C8.65137 12.132 8.67376 12.1096 8.67376 12.082" stroke="#F7F7F7" stroke-width="1.5" stroke-linecap="round" stroke-linejoin="round"/>
<path d="M12.0502 12.0731C12.0502 12.0455 12.0278 12.0231 12.0002 12.0231C11.9726 12.0231 11.9502 12.0455 11.9502 12.0731C11.9502 12.1007 11.9726 12.1231 12.0002 12.1231C12.0278 12.1231 12.0502 12.1007 12.0502 12.0731" stroke="#F7F7F7" stroke-width="1.5" stroke-linecap="round" stroke-linejoin="round"/>
<path d="M15.0514 12.0731C15.0514 12.0455 15.0291 12.0231 15.0014 12.0231C14.9738 12.0231 14.9514 12.0455 14.9514 12.0731C14.9514 12.1007 14.9738 12.1231 15.0014 12.1231C15.0291 12.1231 15.0514 12.1007 15.0514 12.0731" stroke="#F7F7F7" stroke-width="1.5" stroke-linecap="round" stroke-linejoin="round"/>
</svg>
