<svg width="32" height="32" viewBox="0 0 32 32" fill="none" xmlns="http://www.w3.org/2000/svg">
<rect width="32" height="32" rx="16" fill="#653DF5"/>
<path d="M10.9979 24.0034C9.61665 24.0034 8.49689 22.8836 8.49689 21.5023V18.5011C8.49689 17.8378 8.23339 17.2016 7.76435 16.7326C7.29532 16.2635 6.65917 16 5.99585 16C6.65917 16 7.29532 15.7365 7.76435 15.2675C8.23339 14.7985 8.49689 14.1623 8.49689 13.499V10.4977C8.49689 9.11646 9.61665 7.9967 10.9979 7.9967" stroke="#F7F7F7" stroke-width="1.5" stroke-linecap="round" stroke-linejoin="round"/>
<path d="M21.0021 7.9967C22.3834 7.9967 23.5031 9.11646 23.5031 10.4977V13.499C23.5031 14.8803 24.6229 16 26.0042 16C24.6229 16 23.5031 17.1198 23.5031 18.5011V21.5023C23.5031 22.8836 22.3834 24.0034 21.0021 24.0034" stroke="#F7F7F7" stroke-width="1.5" stroke-linecap="round" stroke-linejoin="round"/>
<path d="M12.6736 16.082C12.6736 16.0544 12.6512 16.032 12.6236 16.032C12.5959 16.032 12.5735 16.0544 12.5735 16.082C12.5735 16.1096 12.5959 16.132 12.6236 16.132C12.6512 16.132 12.6736 16.1096 12.6736 16.082" stroke="#F7F7F7" stroke-width="1.5" stroke-linecap="round" stroke-linejoin="round"/>
<path d="M16.05 16.0731C16.05 16.0455 16.0276 16.0231 16 16.0231C15.9723 16.0231 15.9499 16.0455 15.9499 16.0731C15.9499 16.1007 15.9723 16.1231 16 16.1231C16.0276 16.1231 16.05 16.1007 16.05 16.0731" stroke="#F7F7F7" stroke-width="1.5" stroke-linecap="round" stroke-linejoin="round"/>
<path d="M19.0513 16.0731C19.0513 16.0455 19.0289 16.0231 19.0012 16.0231C18.9736 16.0231 18.9512 16.0455 18.9512 16.0731C18.9512 16.1007 18.9736 16.1231 19.0012 16.1231C19.0289 16.1231 19.0513 16.1007 19.0513 16.0731" stroke="#F7F7F7" stroke-width="1.5" stroke-linecap="round" stroke-linejoin="round"/>
</svg>
